REM DIRINDEX 1\2,1\3,1\4,1\5,1\6
REM DIRNAME folder01,folder02,folder03,folder04,folder05,folder06
TITLE ""
FILE "Disc2Track26.mp3" MP3
  TRACK 01 AUDIO
    TITLE "3:cjc030_02767"
    INDEX 01 00:00:00
  TRACK 02 AUDIO
    TITLE "0:"
    INDEX 01 00:00:66
  TRACK 03 AUDIO
    TITLE "4:cjc030_02768"
    INDEX 01 00:01:01
  TRACK 04 AUDIO
    TITLE "0:"
    INDEX 01 00:04:23
  TRACK 05 AUDIO
    TITLE "5:cjc030_02769"
    INDEX 01 00:04:31
  TRACK 06 AUDIO
    TITLE "0:"
    INDEX 01 00:05:28
  TRACK 07 AUDIO
    TITLE "6:cjc030_02770"
    INDEX 01 00:05:40
  TRACK 08 AUDIO
    TITLE "0:"
    INDEX 01 00:08:58
  TRACK 09 AUDIO
    TITLE "3:cjc030_02771"
    INDEX 01 00:09:34
  TRACK 10 AUDIO
    TITLE "0:"
    INDEX 01 00:10:65
  TRACK 11 AUDIO
    TITLE "4:cjc030_02772"
    INDEX 01 00:10:74
  TRACK 12 AUDIO
    TITLE "0:"
    INDEX 01 00:13:45
  TRACK 13 AUDIO
    TITLE "5:cjc030_02773"
    INDEX 01 00:13:55
  TRACK 14 AUDIO
    TITLE "0:"
    INDEX 01 00:15:09
  TRACK 15 AUDIO
    TITLE "6:cjc030_02774"
    INDEX 01 00:15:25
  TRACK 16 AUDIO
    TITLE "0:"
    INDEX 01 00:18:56
  TRACK 17 AUDIO
    TITLE "3:cjc030_02775"
    INDEX 01 00:19:30
  TRACK 18 AUDIO
    TITLE "0:"
    INDEX 01 00:21:09
  TRACK 19 AUDIO
    TITLE "4:cjc030_02776"
    INDEX 01 00:21:19
  TRACK 20 AUDIO
    TITLE "0:"
    INDEX 01 00:22:36
  TRACK 21 AUDIO
    TITLE "5:cjc030_02777"
    INDEX 01 00:22:44
  TRACK 22 AUDIO
    TITLE "0:"
    INDEX 01 00:24:25
  TRACK 23 AUDIO
    TITLE "6:cjc030_02778"
    INDEX 01 00:24:37
  TRACK 24 AUDIO
    TITLE "0:"
    INDEX 01 00:28:00
  TRACK 25 AUDIO
    TITLE "3:cjc030_02779"
    INDEX 01 00:28:51
  TRACK 26 AUDIO
    TITLE "0:"
    INDEX 01 00:30:18
  TRACK 27 AUDIO
    TITLE "4:cjc030_02780"
    INDEX 01 00:30:30
  TRACK 28 AUDIO
    TITLE "0:"
    INDEX 01 00:33:44
  TRACK 29 AUDIO
    TITLE "5:cjc030_02781"
    INDEX 01 00:33:52
  TRACK 30 AUDIO
    TITLE "0:"
    INDEX 01 00:35:23
  TRACK 31 AUDIO
    TITLE "6:cjc030_02782"
    INDEX 01 00:35:33
  TRACK 32 AUDIO
    TITLE "0:"
    INDEX 01 00:39:31
  TRACK 33 AUDIO
    TITLE "3:cjc030_02783"
    INDEX 01 00:40:05
  TRACK 34 AUDIO
    TITLE "0:"
    INDEX 01 00:41:02
  TRACK 35 AUDIO
    TITLE "4:cjc030_02784"
    INDEX 01 00:41:12
  TRACK 36 AUDIO
    TITLE "0:"
    INDEX 01 00:46:04
  TRACK 37 AUDIO
    TITLE "5:cjc030_02785"
    INDEX 01 00:46:11
  TRACK 38 AUDIO
    TITLE "0:"
    INDEX 01 00:47:09
  TRACK 39 AUDIO
    TITLE "6:cjc030_02786"
    INDEX 01 00:47:21
  TRACK 40 AUDIO
    TITLE "0:"
    INDEX 01 00:51:09
  TRACK 41 AUDIO
    TITLE "3:cjc030_02787"
    INDEX 01 00:51:63
  TRACK 42 AUDIO
    TITLE "0:"
    INDEX 01 00:52:73
  TRACK 43 AUDIO
    TITLE "4:cjc030_02788"
    INDEX 01 00:53:06
  TRACK 44 AUDIO
    TITLE "0:"
    INDEX 01 00:54:25
  TRACK 45 AUDIO
    TITLE "5:cjc030_02789"
    INDEX 01 00:54:27
  TRACK 46 AUDIO
    TITLE "0:"
    INDEX 01 00:55:42
  TRACK 47 AUDIO
    TITLE "6:cjc030_02790"
    INDEX 01 00:55:55
  TRACK 48 AUDIO
    TITLE "0:"
    INDEX 01 00:58:71
  TRACK 49 AUDIO
    TITLE "3:cjc030_02791"
    INDEX 01 00:59:43
  TRACK 50 AUDIO
    TITLE "0:"
    INDEX 01 01:01:13
  TRACK 51 AUDIO
    TITLE "4:cjc030_02792"
    INDEX 01 01:01:21
  TRACK 52 AUDIO
    TITLE "0:"
    INDEX 01 01:03:16
  TRACK 53 AUDIO
    TITLE "5:cjc030_02793"
    INDEX 01 01:03:22
  TRACK 54 AUDIO
    TITLE "0:"
    INDEX 01 01:04:70
  TRACK 55 AUDIO
    TITLE "6:cjc030_02794"
    INDEX 01 01:05:07
  TRACK 56 AUDIO
    TITLE "0:"
    INDEX 01 01:08:15
  TRACK 57 AUDIO
    TITLE "3:cjc030_02795"
    INDEX 01 01:08:64
  TRACK 58 AUDIO
    TITLE "0:"
    INDEX 01 01:09:65
  TRACK 59 AUDIO
    TITLE "4:cjc030_02796"
    INDEX 01 01:10:00
  TRACK 60 AUDIO
    TITLE "0:"
    INDEX 01 01:13:08
  TRACK 61 AUDIO
    TITLE "5:cjc030_02797"
    INDEX 01 01:13:16
  TRACK 62 AUDIO
    TITLE "0:"
    INDEX 01 01:14:19
  TRACK 63 AUDIO
    TITLE "6:cjc030_02798"
    INDEX 01 01:14:31
  TRACK 64 AUDIO
    TITLE "0:"
    INDEX 01 01:19:13
  TRACK 65 AUDIO
    TITLE "6:cjc030_02799"
    INDEX 01 01:19:46
  TRACK 66 AUDIO
    TITLE "0:"
    INDEX 01 01:23:36
  TRACK 67 AUDIO
    TITLE "3:cjc030_02800"
    INDEX 01 01:24:08
  TRACK 68 AUDIO
    TITLE "0:"
    INDEX 01 01:25:17
  TRACK 69 AUDIO
    TITLE "4:cjc030_02801"
    INDEX 01 01:25:27
  TRACK 70 AUDIO
    TITLE "0:"
    INDEX 01 01:27:16
  TRACK 71 AUDIO
    TITLE "5:cjc030_02802"
    INDEX 01 01:27:24
  TRACK 72 AUDIO
    TITLE "0:"
    INDEX 01 01:28:33
  TRACK 73 AUDIO
    TITLE "3:cjc030_02803"
    INDEX 01 01:29:15
  TRACK 74 AUDIO
    TITLE "0:"
    INDEX 01 01:30:24
  TRACK 75 AUDIO
    TITLE "4:cjc030_02804"
    INDEX 01 01:30:34
  TRACK 76 AUDIO
    TITLE "0:"
    INDEX 01 01:31:32
  TRACK 77 AUDIO
    TITLE "5:cjc030_02805"
    INDEX 01 01:31:39
  TRACK 78 AUDIO
    TITLE "0:"
    INDEX 01 01:32:49
  TRACK 79 AUDIO
    TITLE "3:cjc030_02806"
    INDEX 01 01:33:23
  TRACK 80 AUDIO
    TITLE "0:"
    INDEX 01 01:34:16
  TRACK 81 AUDIO
    TITLE "4:cjc030_02807"
    INDEX 01 01:34:28
  TRACK 82 AUDIO
    TITLE "0:"
    INDEX 01 01:36:17
  TRACK 83 AUDIO
    TITLE "5:cjc030_02808"
    INDEX 01 01:36:27
  TRACK 84 AUDIO
    TITLE "0:"
    INDEX 01 01:37:22
  TRACK 85 AUDIO
    TITLE "6:cjc030_02809"
    INDEX 01 01:37:34
  TRACK 86 AUDIO
    TITLE "0:"
    INDEX 01 01:40:03
  TRACK 87 AUDIO
    TITLE "6:cjc030_02810"
    INDEX 01 01:40:35
  TRACK 88 AUDIO
    TITLE "0:"
    INDEX 01 01:45:24
  TRACK 89 AUDIO
    TITLE "3:cjc030_02811"
    INDEX 01 01:45:73
  TRACK 90 AUDIO
    TITLE "0:"
    INDEX 01 01:47:13
  TRACK 91 AUDIO
    TITLE "4:cjc030_02812"
    INDEX 01 01:47:23
  TRACK 92 AUDIO
    TITLE "0:"
    INDEX 01 01:48:32
  TRACK 93 AUDIO
    TITLE "5:cjc030_02813"
    INDEX 01 01:48:42
  TRACK 94 AUDIO
    TITLE "0:"
    INDEX 01 01:49:59
  TRACK 95 AUDIO
    TITLE "3:cjc030_02814"
    INDEX 01 01:50:31
  TRACK 96 AUDIO
    TITLE "0:"
    INDEX 01 01:52:20
  TRACK 97 AUDIO
    TITLE "4:cjc030_02815"
    INDEX 01 01:52:30
  TRACK 98 AUDIO
    TITLE "0:"
    INDEX 01 01:55:03
  TRACK 99 AUDIO
    TITLE "5:cjc030_02816"
    INDEX 01 01:55:13
  TRACK 100 AUDIO
    TITLE "0:"
    INDEX 01 01:57:00
  TRACK 101 AUDIO
    TITLE "6:cjc030_02817"
    INDEX 01 01:57:13
  TRACK 102 AUDIO
    TITLE "0:"
    INDEX 01 02:00:41
